<svg xmlns="http://www.w3.org/2000/svg" viewBox="0 0 713.15057 752.96942"><path d="M453.22627 83.94064c-52.706-41.6282-143.986-84.8559996-212.808-76.8389996-81.106 9.4479996-67.852 102.8489996-31.066 149.5009996 1.666 2.872 10.348 12.214 3.254 13.136-6.426-1.952-20.012-29.43-23.832-36.216-11.528-25.268-20.224-62.644-10.24-89.1806 24.692-65.6246 123.402-44.2219996 172.246-25.0762 100.206 39.2788 187.004 112.7888 220.146 217.3008 26.298-14.328 51.218-28.704 82.826-19.542 74.2 21.504 64.096 147.55 47.746 207.124-5.724 7.84-7.406 22.13-10.994 31.458-17.108 44.476-50.764 85.898-100.67 91.736-5.404 1.118-10.878 1.942-16.338 2.742-10.7.08-20.948-2.118-31.556-2.742 6.794 6.366 11.61 12.796 15.53 21.238 26.006 78.518-103.642 159.428-173.626 175.66-8.18 1.898-16.486 3.28-24.492 5.852-9.442-.42-19.486 1.78-28.972 2.364-111.784 6.878-225.286-55.658-242.221997-174.096-.49-3.432-2.196-9.658-.954-12.924 4.636-12.202 7.702 17.572 8.558 21.882 6.863997 34.59 25.529997 68.504 50.943997 92.786.818 1.248 1.874 2.236 2.926 3.284 57.976 57.616 111.584 63.642 186.526 63.458-41.644-40.124-23.906-88.106-6.998-136.044.496-1.406 10.028-32.63 14.4-23.748 1.85 3.76-2.6 11.862-4.086 15.558-3.906 7.464-6.432 15.704-9.2 23.646-14 40.194-26.156 90.898 15.582 118.844 58.354-7.074 114.388-31.184 157.798-71.226 22.09-20.376 50.138-52.182 51.228-83.462.906-26.07-19.842-49.994-46.454-50.934-34.19-13.24-106.43-.116-137.998 13.61-10.118 4.4-21.968 20.188-32.802 27.874-4.884 4.372-46.728 40.782-51.948 34.046-.28-8.71 93.03-60 87.43-93.574-5.48-22.92-30.858-19.878-49.862-19.874-21.064.004-41.984 1.098-62.934 3.36-13.452 1.452-28.464 4.566-41.82 4.288-14.642 4.112-30.536 5.824-45.492 8.778-17.742 3.968-35.384 8.124-52.738 13.59-17.642 4.57-36.075997 10.26-53.805997 3.036-16.03-.072-31.8358-18.594-39.6728-30.894-30.5753996-47.986-45.5358-206.322 14.0566-243.916 24.2382-15.288 51.0522-8.042 20.3242-2.328-35.4044 6.582-47.7446 48.392-51.7639996 79.094-7.2032 55.024-4.583 128.914 30.8205996 174.984 32.7614 37.652 78.395397 12.576 117.975397 3.492 51.83-11.892 109.456-19.294 162.64-19.436 42.27-.114 72.734 4.03 49.89 51.732 38.59-17.934 95.044-23.458 136.85-15.31 34.462 6.718 46.78 17.15 88.376 8.628 86.242-17.67 109.716-135.242 109.86-208.398.078-40.338-4.414-80.592-41.326-104.642-30.068-13.374-65.978-5.188-90.992 14.958-28.938 19.07-54.686 42.79-89.998 35.542l-.714-.148c-14.772-5.636-28.376-14.256-42.544-21.206-41.112-20.162-74.99-26.76-119.614-26.604-65.806-.262-135.594 45.13-204.144 33.64-3.702-.548-8.104-2.88-11.676-4.18l-1.242-1.174c-33.297997-31.754-2.718-79.848 22.868-106.054 6.932-7.096 30.904-29.084 40.106-29.176 7.472 3.39-14.854 14.692-16.722 16.134-25.584 19.736-79.387997 81.298-43.38 112.168 20.018 22.906 111.514-6.72 138.518-13.836 75.112-19.79 134.328-18.28 203.184 16.696 61.556 31.266 56.586 26.086 118.238-14.194-2.07-4.886-3.362-10.252-5.132-15.27-17.976-50.928-62.83-109.606-108.018-140.976z"/><path fill="#fc625d" d="M453.22627 83.94064c45.188 31.37 90.042 90.048 108.018 140.976 1.77 5.018 3.062 10.384 5.132 15.27-61.652 40.28-56.682 45.46-118.238 14.194-68.856-34.976-128.072-36.486-203.184-16.696-27.004 7.116-118.5 36.742-138.518 13.836 1.028-2.496.054-13.024.354-16.812 3.48-43.734 44.742-83.282 81.984-101.186 3.82 6.786 17.406 34.264 23.832 36.216 7.094-.922-1.588-10.264-3.254-13.136-.044-5.194-4.108-12.19-5.934-17.128-45.886-124.1496 46.45-141.9309996 150.794-106.424 25.51 8.6806 50.718 20.312 73.53 34.768 5.602 3.552 19.964 15.404 25.484 16.122z"/><path d="M48.138273 187.64664c-11.0384 2.106.17-24.532 1.828-29.492 12.924-38.632 30.212-53.07 65.379997-70.626 14.508.344-6.292 9.714-7.01 10.094-31.475997 16.658-45.615997 36.534-55.165997 71.274-1.712 6.234-2.61 12.726-5.032 18.75z"/><path fill="#5f81f7" d="M664.48827 227.62064c36.912 24.05 41.404 64.304 41.326 104.642-.144 73.156-23.618 190.728-109.86 208.398-41.596 8.522-53.914-1.91-88.376-8.628-41.806-8.148-98.26-2.624-136.85 15.31 22.844-47.702-7.62-51.846-49.89-51.732-53.184.142-110.81 7.544-162.64 19.436-39.58 9.084-85.213997 34.16-117.975397-3.492-.093-3.508-7.5374-15.946-9.1096-20.692-17.0538-51.472-20.7268-145.376 2.4856-191.308 10.154-20.094 27.8154-30.462 49.8974-32.318 10.884-.916 16.593997 3.448 21.309997-7.614 3.572 1.3 7.974 3.632 11.676 4.18 35.462 24.91 133.336-5.412 169.032-18.39 11.746-4.272 24.58-8.432 35.112-15.25 44.624-.156 78.502 6.442 119.614 26.604 14.168 6.95 27.772 15.57 42.544 21.206 29.178 26.672 68.786-2.732 92.594-22.394 21.922-15.15 38.692-26.478 66.532-28.084 7.522-.432 15.074 1.004 22.578.126zm-41.104 84.044c-4.646.502-8.166 1.162-11.348 4.948-7.478 8.89-25.512 76.482-32.57 94.086-2.718-17.186-10.262-76.006-15.372-89.822-4.334-11.72-21.602-12.084-28.422-2.328-6.298 9.008 3.054 59.196 6.268 69.762 1.292 16.234 10.384 69.188 22.484 79.816 7.532 6.616 19.026 5.558 25.392-2.146 13.786-16.676 54.782-132.32 53.898-140.022-1.138-9.926-10.828-16.378-20.33-14.294zm-129.27 0c-12.714 4.432-15.064 17.764-19.328 29.042-8.288 21.918-15.55 46.768-24.912 67.862l-7.426-51.562c-1.582-10.71-2.21-33.756-11.396-41.054-5.972-4.742-17.312-2.268-21.584 3.73-7.474 10.492 2.992 55.148 5.116 68.628 2.628 18.276 8.462 69.344 22.536 80.094 26.672 20.372 41.432-45.704 46.718-59.63l16.754-44.334c5.6-14.62 28.068-55.78-6.478-52.776zm-373.85.932c-43.197997 9.38-39.887997 102.04-32.967997 133 6.488 29.022 24.039997 33.458 51.007997 27.308 11.44-2.61 31.542-7.636 37.984-18.04 4.322-6.976 1.994-15.908-5.356-19.674-9.134-4.68-24.428 3.326-33.858 6.178-5.574 1.508-11.106 2.966-16.81 3.914-3.114-11.708-4.654-24.6-3.782-36.714 8.99.346 26.622 1.104 34.914-.722 10.994-2.418 17.886-15.962 8.63-24.76-7.66-7.28-32.86-5.004-43.544-4.956 2.272-11.526 3.832-23.882 8.506-34.718 14.638-.384 41.592 7.654 50.204-1.114 25.682-26.152-41.648-30.604-54.928-29.702zm211.38 0c-13.58 5.452-11.78 14.872-13.06 27.484-1.576 15.558-3.662 45.654-7.682 59.332-3.416-13.774-24.788-73.4-36.388-80.06-7.792-4.472-19.83-1.306-24.058 6.77-7.282 13.91-14.548 100.952-14.592 116.448-.042 14.422 1.318 35.3 21.98 27.78 13.476-7.292 8.268-24.028 8.896-36.762.77-15.586 2.152-32.614 4.824-47.95l14.694 39.922c5.098 14.038 15.446 54.59 37.748 45.182 18.112-7.64 19.822-71.732 21.618-89.28 2.026-19.808 16.848-70.366-13.98-68.866z"/><path fill="#fc625d" d="M116.48227 263.80264c68.55 11.49 138.338-33.902 204.144-33.64-10.532 6.818-23.366 10.978-35.112 15.25-35.696 12.978-133.57 43.3-169.032 18.39zm366.302 14.17.714.148c35.312 7.248 61.06-16.472 89.998-35.542 1.054 4.302 1.852 8.554 1.882 13-23.808 19.662-63.416 49.066-92.594 22.394z"/><path d="M579.46627 410.69864c7.058-17.604 25.092-85.196 32.57-94.086 3.182-3.786 6.702-4.446 11.348-4.948 9.502-2.084 19.192 4.368 20.33 14.294.884 7.702-40.112 123.346-53.898 140.022-6.366 7.704-17.86 8.762-25.392 2.146-12.1-10.628-21.192-63.582-22.484-79.816-3.214-10.566-12.566-60.754-6.268-69.762 6.82-9.756 24.088-9.392 28.422 2.328 5.11 13.816 12.654 72.636 15.372 89.822zm43.918-93.44c-11.204 2.472-12.138 15.036-15.282 24.43l-23.266 71.486c-2.036 5.982-4.194 11.682-5.37 17.912-4.876-12.258-6.532-25.62-8.846-38.564l-7.65-44.048c-1.324-7.926-1.902-17.308-4.654-24.814-3.174-8.652-15.082-8.14-18.266.032-2.824 7.248 2.538 32.876 3.662 41.8 4.51 29.268 17.95 160.524 54.652 70.334 12.068-29.654 22.744-60.28 33.434-90.492 3.824-10.804 11.436-30.034-8.414-28.076zm-173.51 91.31c9.362-21.094 16.624-45.944 24.912-67.862 4.264-11.278 6.614-24.61 19.328-29.042 34.546-3.004 12.078 38.156 6.478 52.776l-16.754 44.334c-5.286 13.926-20.046 80.002-46.718 59.63-14.074-10.75-19.908-61.818-22.536-80.094-2.124-13.48-12.59-58.136-5.116-68.628 4.272-5.998 15.612-8.472 21.584-3.73 9.186 7.298 9.814 30.344 11.396 41.054zm47.844-91.31c-12.324 1.792-13.732 14.926-17.542 24.81-10.884 28.23-19.436 57.332-30.302 85.502l-.306-.692c-7.1-16.382-13.17-103.696-23.14-107.534-24.51-9.43-10.902 36.39-9.764 43.662 2.55 17.728 11.032 91.47 24.038 101.216 17.29 12.956 28.624-31.092 31.856-40.204l26-71.404c3.424-9.254 17.362-33.992-.84-35.356zm-360.644 124.11c9.43-2.852 24.724-10.858 33.858-6.178 7.35 3.766 9.678 12.698 5.356 19.674-6.442 10.404-26.544 15.43-37.984 18.04-26.968 6.15-44.519997 1.714-51.007997-27.308-6.92-30.96-10.23-123.62 32.967997-133 13.28-.902 80.61 3.55 54.928 29.702-8.612 8.768-35.566.73-50.204 1.114-4.674 10.836-6.234 23.192-8.506 34.718 10.684-.048 35.884-2.324 43.544 4.956 9.256 8.798 2.364 22.342-8.63 24.76-8.292 1.826-25.924 1.068-34.914.722-.872 12.114.668 25.006 3.782 36.714 5.704-.948 11.236-2.406 16.81-3.914zm-16.81-123.188c-37.515997 11.282-34.427997 104.416-25.903997 131.306 8.715997 27.494 32.425997 22.264 55.081997 14.316 6.3-2.21 37.682-16.042 18.252-23.816-6.116-2.446-35.462 9.828-47.43 10.338-11.562-2.898-10.398-37.858-10.238-47.266 7.368.51 40.192 1.698 44.93-2.744 3.872-3.63 4.214-10.632.094-14.176-4.894-4.208-36.81-2.152-45.024-2.46 11.928-67.892 5.606-40.488 56.7-43.132 2.414-1.358 5.106-2.83 5.886-5.71 4.636-17.118-43.202-17.368-52.348-16.656zm190.638 81.232c4.02-13.678 6.106-43.774 7.682-59.332 1.28-12.612-.52-22.032 13.06-27.484 30.828-1.5 16.006 49.058 13.98 68.866-1.796 17.548-3.506 81.64-21.618 89.28-22.302 9.408-32.65-31.144-37.748-45.182l-14.694-39.922c-2.672 15.336-4.054 32.364-4.824 47.95-.628 12.734 4.58 29.47-8.896 36.762-20.662 7.52-22.022-13.358-21.98-27.78.044-15.496 7.31-102.538 14.592-116.448 4.228-8.076 16.266-11.242 24.058-6.77 11.6 6.66 32.972 66.286 36.388 80.06zm22.794-81.232c-3.066.926-5.158 2.14-7.41 4.412-4.81 14.138-9.688 79.25-11.428 96.766l-.248-.468c-10.632-20.42-19.132-48.23-28.366-70.052-4.298-10.158-10.566-32.506-26.122-24.386-14.12 7.372-21.984 128.058-16.248 137.502 3.2 5.272 8.916 4.274 13.97 2.828 6.928-7.784 3.094-28.418 3.822-38.74 1.436-20.348 4.844-40.358 7.44-60.55 7.928 17.224 14.224 35.702 20.612 53.558 3.286 9.184 15.526 54.038 31.44 46.602 15.696-7.332 16.306-56.578 17.844-70.96 2.212-20.654 5.5-42.306 5.552-63.1.02-8.276-2.262-13.302-10.858-13.412z"/><path fill="#fff" d="M449.87427 427.57064c10.866-28.17 19.418-57.272 30.302-85.502 3.81-9.884 5.218-23.018 17.542-24.81 18.202 1.364 4.264 26.102.84 35.356l-26 71.404c-3.232 9.112-14.566 53.16-31.856 40.204-13.006-9.746-21.488-83.488-24.038-101.216-1.138-7.272-14.746-53.092 9.764-43.662 9.97 3.838 16.04 91.152 23.14 107.534zm129.592 3.516c1.176-6.23 3.334-11.93 5.37-17.912l23.266-71.486c3.144-9.394 4.078-21.958 15.282-24.43 19.85-1.958 12.238 17.272 8.414 28.076-10.69 30.212-21.366 60.838-33.434 90.492-36.702 90.19-50.142-41.066-54.652-70.334-1.124-8.924-6.486-34.552-3.662-41.8 3.184-8.172 15.092-8.684 18.266-.032 2.752 7.506 3.33 16.888 4.654 24.814l7.65 44.048c2.314 12.944 3.97 26.306 8.846 38.564zm-459.202 19.238c11.968-.51 41.314-12.784 47.43-10.338 19.43 7.774-11.952 21.606-18.252 23.816-22.656 7.948-46.366 13.178-55.081997-14.316-8.524-26.89-11.612-120.024 25.903997-131.306 9.146-.712 56.984-.462 52.348 16.656-.78 2.88-3.472 4.352-5.886 5.71-51.094 2.644-44.772-24.76-56.7 43.132 8.214.308 40.13-1.748 45.024 2.46 4.12 3.544 3.778 10.546-.094 14.176-4.738 4.442-37.562 3.254-44.93 2.744-.16 9.408-1.324 44.368 10.238 47.266zm206.022-127.732c2.252-2.272 4.344-3.486 7.41-4.412 8.596.11 10.878 5.136 10.858 13.412-.052 20.794-3.34 42.446-5.552 63.1-1.538 14.382-2.148 63.628-17.844 70.96-15.914 7.436-28.154-37.418-31.44-46.602-6.388-17.856-12.684-36.334-20.612-53.558-2.596 20.192-6.004 40.202-7.44 60.55-.728 10.322 3.106 30.956-3.822 38.74-5.054 1.446-10.77 2.444-13.97-2.828-5.736-9.444 2.128-130.13 16.248-137.502 15.556-8.12 21.824 14.228 26.122 24.386 9.234 21.822 17.734 49.632 28.366 70.052l.248.468c1.74-17.516 6.618-82.628 11.428-96.766z"/><path fill="#5f81f7" d="M589.83427 547.34264c49.906-5.838 83.562-47.26 100.67-91.736 3.588-9.328 5.27-23.618 10.994-31.458-.098 30.5-25.524 78.216-46.176 98.728-17.386 17.268-38.7 24.62-62.312 28.702-2.168-.444-5.086-.438-6.998-1.446l.574-.972c.852-.38 1.63-.786 2.414-1.284z"/><path fill="#15bbab" d="M146.70627 680.10464c-2.748-6.004-10.59-15.216-14.546-21.626-16.682-27.024-38.173997-81.872-9.748-108.538 31.432-29.486 176.812-42.016 216.016-40.658 14.318.496 24.482 1.29 34.682 12.154 5.6 33.574-87.71 84.864-87.43 93.574 5.22 6.736 47.064-29.674 51.948-34.046 6.306.466 34.012-14.606 42.344-17.632-4.408 11.7-27.884 36.432-40.498 39.28 1.486-3.696 5.936-11.798 4.086-15.558-4.372-8.882-13.904 22.342-14.4 23.748-16.908 47.938-34.646 95.92 6.998 136.044-74.942.184-128.55-5.842-186.526-63.458-1.052-1.048-2.108-2.036-2.926-3.284z"/><path fill="#fed45e" d="M508.42827 539.48064c26.612.94 47.36 24.864 46.454 50.934-1.09 31.28-29.138 63.086-51.228 83.462-43.41 40.042-99.444 64.152-157.798 71.226-41.738-27.946-29.582-78.65-15.582-118.844 2.768-7.942 5.294-16.182 9.2-23.646 12.614-2.848 36.09-27.58 40.498-39.28 32.89-16.24 71.27-23.032 107.838-23.916 4.194-.102 18.228 1.166 20.618.064z"/><path fill="#93b0ff" d="M573.49627 550.08464c5.46-.8 10.934-1.624 16.338-2.742l-.834.534c-.784.498-1.562.904-2.414 1.284l-.574.972c1.912 1.008 4.83 1.002 6.998 1.446-5.314.818-14.912 1.308-19.514-1.494z"/><path fill="#fed45e" d="M557.47027 568.58064c5.19 3.414 8.02 11.086 9.242 16.962 6.19 29.766-13.79 57.086-32.128 78.374-37 42.948-87.276 73.092-143.166 84.07-6.056 1.19-26.338 4.12-32.066 2.106 8.006-2.572 16.312-3.954 24.492-5.852 69.984-16.232 199.632-97.142 173.626-175.66z"/></svg>